<svg width="52" height="52" viewBox="0 0 52 52" fill="none" xmlns="http://www.w3.org/2000/svg">
<g filter="url(#filter0_d_148_167)">
<path d="M2 41.2713L7.7431 39.2404L3.40239 37.2095L2 41.2713Z" fill="#F7B600"/>
<path d="M18.627 24.6157L10.5465 16.355L9.21094 20.1468L18.627 24.6157Z" fill="#FFDD7D"/>
<path d="M9.21135 20.146L7.74219 24.4118L25.6393 32.8756L26.5074 32.6047L18.6274 24.6149L9.21135 20.146Z" fill="#F7B600"/>
<path d="M6.33984 28.6779L19.6959 34.9749L25.6393 32.8759L7.74223 24.4121L6.33984 28.6779Z" fill="#FFDD7D"/>
<path d="M4.87109 32.9435L13.6861 37.1415L19.6963 34.9748L6.34026 28.6777L4.87109 32.9435Z" fill="#F7B600"/>
<path d="M4.86956 32.9438L3.40039 37.2096L7.74111 39.2409L13.6845 37.1419L4.86956 32.9438Z" fill="#FFDD7D"/>
<path d="M21.9662 21.0939C26.4405 25.5628 28.7778 30.5734 27.1751 32.1984C25.5056 33.8235 20.5638 31.5213 16.0228 26.9847C11.5485 22.5158 9.21118 17.5052 10.8139 15.8802C12.4834 14.2551 17.4251 16.625 21.9662 21.0939Z" fill="#493816"/>
<path d="M16.3556 9.78657C15.2871 8.22923 16.4224 7.55212 17.8916 7.82296C16.4892 6.1302 17.3573 4.91141 19.5611 5.38539C20.2289 5.52081 19.2939 6.67188 18.6929 6.67188C20.496 8.02609 19.4943 9.51572 17.5577 9.17717C19.2939 11.547 16.3556 10.9376 15.02 11.0731C14.6861 12.8335 16.6895 14.8648 16.0217 14.8648C14.5525 14.8648 12.1485 9.24488 16.3556 9.78657Z" fill="#42ADE2"/>
<path d="M30.382 13.0369C29.3803 13.5109 26.5755 9.04202 30.0481 8.97431C28.0447 7.14612 28.3118 6.26589 30.983 6.19818C27.9111 3.0835 32.7861 2.00013 33.2535 3.62518C33.3871 4.09915 31.7844 3.21892 31.2501 4.09915C30.6491 5.11481 34.9898 7.75552 30.5155 7.55239C32.185 9.24515 32.2518 10.0577 29.6474 10.3285C29.9813 10.8702 31.0498 12.7661 30.382 13.0369Z" fill="#FF8736"/>
<path d="M31.5156 23.5996L32.5173 22.7193C32.5173 22.7193 33.4523 24.1413 34.1201 24.6829C34.6543 22.2454 34.5207 20.8234 37.2587 22.4485C35.7228 18.2504 38.2604 19.8078 40.7313 20.9589C40.5977 19.8755 40.7313 20.0109 41.7998 19.6724C42.7347 23.261 40.1971 22.1776 38.1936 21.0266C39.3957 24.2767 38.1269 24.0735 35.5892 22.9902C35.5224 24.3444 35.1218 25.9017 34.3204 26.0371C33.3855 26.308 31.5156 23.5996 31.5156 23.5996Z" fill="#ED4C5C"/>
<path d="M24.0385 13.5785C22.8365 15.2035 20.8998 16.0838 19.4975 17.5057C18.0283 18.9953 17.1602 23.0579 17.1602 23.0579C17.1602 23.0579 17.6944 18.7922 19.0968 17.1671C20.3656 15.6775 22.2355 14.5941 23.2372 12.9014C24.9734 9.7867 23.3707 5.72407 21.1002 3.35421C21.5677 2.94795 22.2355 2.40626 22.5694 2C24.7731 4.77613 26.643 10.1253 24.0385 13.5785Z" fill="#C28FEF"/>
<path d="M26.1092 17.0319C24.3729 18.3184 23.1041 20.2143 21.902 21.9747C20.8335 23.5321 17.4277 25.4957 17.4277 25.4957C17.4277 25.4957 20.6332 23.2612 21.6349 21.6362C22.8369 19.6049 24.039 17.5058 25.9088 16.0162C29.6485 13.1047 35.0577 13.3755 39.2649 14.9329C38.9978 15.5422 38.5303 16.8287 38.5303 16.8287C38.5303 16.8287 29.6485 14.3912 26.1092 17.0319Z" fill="#FF8736"/>
<path d="M33.5189 16.6934C32.3836 18.183 31.8494 20.0112 30.9812 21.704C30.1799 23.2613 29.1114 24.751 27.5754 25.5635C25.8391 26.4437 22.0327 26.1729 22.0327 26.1729C22.0327 26.1729 25.8391 26.1052 27.4419 25.0218C29.0446 23.9384 29.9127 22.0425 30.5138 20.2821C31.7158 16.8966 33.185 13.2402 36.6575 11.7506C36.8579 12.3599 37.3254 13.6464 37.3254 13.6464C37.3254 13.6464 35.3887 14.1881 33.5189 16.6934ZM2.80664 9.66846L4.69519 7.75293L6.5844 9.66778L4.69585 11.584L2.80664 9.66846Z" fill="#42ADE2"/>
<path d="M5.45508 15.6752L7.34296 13.7607L9.2315 15.6752L7.34296 17.5897L5.45508 15.6752Z" fill="#FF8736"/>
<path d="M10.252 6.61856L12.1405 4.7041L14.029 6.61856L12.1405 8.53302L10.252 6.61856Z" fill="#ED4C5C"/>
<path d="M30.8516 29.5548L32.7401 27.6396L34.6287 29.5548L32.7401 31.4692L30.8516 29.5548Z" fill="#C28FEF"/>
<path d="M26.6445 36.119L28.5331 34.2046L30.4223 36.1197L28.5331 38.0342L26.6445 36.119Z" fill="#ED4C5C"/>
<path d="M34.9102 37.6197L36.7987 35.7046L38.6872 37.6197L36.7987 39.5342L34.9102 37.6197Z" fill="#FF8736"/>
<path d="M36.7764 28.9022L38.665 26.9874L40.5535 28.9022L38.665 30.8177L36.7764 28.9022ZM33.623 8.65137L35.5116 6.73584L37.4008 8.65137L35.5123 10.5662L33.623 8.65137Z" fill="#42ADE2"/>
<path d="M13.3828 20.1405L15.272 18.2261L17.1606 20.1405L15.272 22.0557L13.3828 20.1405Z" fill="#ED4C5C"/>
</g>
<defs>
<filter id="filter0_d_148_167" x="0" y="0" width="52" height="51.2715" filterUnits="userSpaceOnUse" color-interpolation-filters="sRGB">
<feFlood flood-opacity="0" result="BackgroundImageFix"/>
<feColorMatrix in="SourceAlpha" type="matrix" values="0 0 0 0 0 0 0 0 0 0 0 0 0 0 0 0 0 0 127 0" result="hardAlpha"/>
<feOffset dx="4" dy="4"/>
<feGaussianBlur stdDeviation="3"/>
<feComposite in2="hardAlpha" operator="out"/>
<feColorMatrix type="matrix" values="0 0 0 0 0 0 0 0 0 0 0 0 0 0 0 0 0 0 0.75 0"/>
<feBlend mode="normal" in2="BackgroundImageFix" result="effect1_dropShadow_148_167"/>
<feBlend mode="normal" in="SourceGraphic" in2="effect1_dropShadow_148_167" result="shape"/>
</filter>
</defs>
</svg>
