<svg width="1097" height="654" viewBox="0 0 1097 654" fill="none" xmlns="http://www.w3.org/2000/svg">
<path d="M142.5 236L147.98 245.697L158 251L147.98 256.303L142.5 266L137.02 256.303L127 251L137.02 245.697L142.5 236Z" fill="#FFFEFF"/>
<path d="M1084 399L1088.6 407.404L1097 412L1088.6 416.596L1084 425L1079.4 416.596L1071 412L1079.4 407.404L1084 399Z" fill="#A404F8"/>
<path d="M737 0L741.596 8.40381L750 13L741.596 17.5962L737 26L732.404 17.5962L724 13L732.404 8.40381L737 0Z" fill="#FFFEFF"/>
<path d="M343 88L346.182 93.818L352 97L346.182 100.182L343 106L339.818 100.182L334 97L339.818 93.818L343 88Z" fill="#1E5AFF"/>
<path d="M82 628L86.5962 636.404L95 641L86.5962 645.596L82 654L77.4038 645.596L69 641L77.4038 636.404L82 628Z" fill="#AC01E9"/>
<path d="M13 421L17.5962 429.404L26 434L17.5962 438.596L13 447L8.40381 438.596L0 434L8.40381 429.404L13 421Z" fill="#4600BA"/>
</svg>
