<svg width="16" height="17" viewBox="0 0 16 17" fill="none" xmlns="http://www.w3.org/2000/svg">
<path d="M14 4.03055H1.5V3.52359L12.5 2.63133V3.52359H14V2.00269C14 0.887372 13.109 0.104619 12.021 0.261778L1.98 1.71575C0.891 1.87393 0 2.91523 0 4.03055V14.1698C0 14.7077 0.210714 15.2235 0.585786 15.6038C0.960859 15.9841 1.46957 16.1977 2 16.1977H14C14.5304 16.1977 15.0391 15.9841 15.4142 15.6038C15.7893 15.2235 16 14.7077 16 14.1698V6.05841C16 5.52059 15.7893 5.0048 15.4142 4.6245C15.0391 4.2442 14.5304 4.03055 14 4.03055ZM12.5 11.1341C12.303 11.1341 12.1078 11.0947 11.9258 11.0181C11.7438 10.9416 11.5784 10.8295 11.4391 10.6882C11.2998 10.5469 11.1894 10.3791 11.114 10.1945C11.0387 10.0099 10.9999 9.81203 11 9.61223C11.0001 9.41244 11.0389 9.21462 11.1144 9.03006C11.1899 8.8455 11.3005 8.67782 11.4398 8.53659C11.5792 8.39536 11.7447 8.28335 11.9267 8.20695C12.1088 8.13056 12.304 8.09127 12.501 8.09134C12.899 8.09147 13.2806 8.25189 13.5619 8.53731C13.8432 8.82272 14.0011 9.20975 14.001 9.61325C14.0009 10.0167 13.8427 10.4037 13.5612 10.6889C13.2797 10.9741 12.898 11.1343 12.5 11.1341Z" fill="white"/>
</svg>
