<svg width="27" height="34" viewBox="0 0 27 34" fill="none" xmlns="http://www.w3.org/2000/svg">
<path d="M5.72252 10.6642C5.56666 12.3499 5.45728 15.3331 6.43892 16.6029C6.43892 16.6029 5.97681 13.3258 10.1194 9.21424C11.7874 7.55908 12.1729 5.30784 11.5905 3.61941C11.2596 2.66291 10.6553 1.87276 10.1303 1.32104C9.82408 0.996661 10.0592 0.461575 10.5049 0.480982C13.201 0.602971 17.5706 1.36263 19.4272 6.0869C20.242 8.1607 20.3022 10.3038 19.9139 12.483C19.6678 13.8748 18.7928 16.9688 20.7889 17.3486C22.2135 17.6203 22.9026 16.4725 23.2116 15.6464C23.3401 15.3026 23.7858 15.2166 24.0264 15.4911C26.4327 18.2663 26.6378 21.5351 26.1401 24.3491C25.1776 29.7887 19.7444 33.7478 14.3467 33.7478C7.60377 33.7478 2.23619 29.8358 0.844391 22.7549C0.283844 19.8965 0.56822 14.2407 4.91588 10.2484C5.23853 9.94894 5.76627 10.2151 5.72252 10.6642Z" fill="url(#paint0_radial_140_110)"/>
<defs>
<radialGradient id="paint0_radial_140_110" cx="0" cy="0" r="1" gradientUnits="userSpaceOnUse" gradientTransform="translate(13.0112 33.834) rotate(-179.748) scale(19.3013 32.1107)">
<stop offset="0.314" stop-color="#FF9800"/>
<stop offset="0.662" stop-color="#FF6D00"/>
<stop offset="0.972" stop-color="#F44336"/>
</radialGradient>
</defs>
</svg>
